<?xml version="1.0" encoding="iso-8859-1"?>
<!-- Generator: Adobe Illustrator 19.0.0, SVG Export Plug-In . SVG Version: 6.00 Build 0)  -->
<svg version="1.1" id="Capa_1" xmlns="http://www.w3.org/2000/svg" xmlns:xlink="http://www.w3.org/1999/xlink" x="0px" y="0px"
	 viewBox="0 0 364.8 364.8" style="enable-background:new 0 0 364.8 364.8;" xml:space="preserve">
<g>
	<path style="fill:#FDE7AE;" d="M28.8,144.4v64h86.4c0.8-0.8,0.8-1.6,1.6-2.4l59.2-56L28.8,144.4z"/>
	<path style="fill:#FDE7AE;" d="M130.4,222v51.2c31.2,2.4,157.6,10.4,228.8-43.2l1.6-51.2c-28.8,28.8-91.2,48-165.6,48
		C173.6,227.6,152,226,130.4,222z"/>
</g>
<g>
	<path style="fill:#FA9E15;" d="M129.6,284.4V310c30.4,3.2,153.6,12,228-47.2l0.8-16.8c-55.2,33.6-129.6,40-180.8,40
		C156,286,139.2,285.2,129.6,284.4z"/>
	<rect x="28" y="219.6" style="fill:#FA9E15;" width="85.6" height="34.4"/>
	<path style="fill:#FA9E15;" d="M194.4,70c-85.6,0-147.2,26.4-163.2,53.6l163.2,6.4c4.8,0,8,4,8,8c0,2.4-0.8,4-2.4,5.6L138.4,202
		c18.4,2.4,37.6,4,56,4c100,0,167.2-35.2,167.2-68l0,0C360.8,105.2,293.6,70,194.4,70z M144.8,114.8c-7.2,0-12.8-5.6-12.8-12.8
		s5.6-12.8,12.8-12.8c7.2,1.6,11.2,8.8,9.6,16C152.8,109.2,149.6,113.2,144.8,114.8L144.8,114.8z M228,186
		c-7.2,0-12.8-5.6-12.8-12.8c0-7.2,5.6-12.8,12.8-12.8c7.2,0.8,12,7.2,11.2,14.4C238.4,180.4,233.6,184.4,228,186L228,186z
		 M259.2,122c-7.2,0-12.8-5.6-12.8-12.8s5.6-12.8,12.8-12.8l0,0c7.2,0.8,12,7.2,11.2,14.4C269.6,116.4,264.8,120.4,259.2,122
		L259.2,122z"/>
</g>
<g>
	<path style="fill:#873C1B;" d="M182.4,45.2C87.2,45.2,8.8,78,0,121.2c0,0.8,0,0.8,0,1.6l0,0V254c0,4.8,3.2,8,8,8h92.8v45.6
		c0,4,3.2,7.2,7.2,8c19.2,2.4,39.2,4,58.4,4c54.4,0,135.2-9.6,191.2-56c1.6-1.6,2.4-3.2,3.2-5.6l4-128l0,0l0,0
		C364.8,82,284.8,45.2,182.4,45.2z M101.6,246H16v-35.2h85.6V246z M104,192.4c-0.8,0.8-1.6,1.6-1.6,2.4H16V130l147.2,5.6L104,192.4z
		 M344.8,253.2c-74.4,60-197.6,50.4-228,47.2v-25.6c9.6,0.8,27.2,2.4,48,2.4c51.2,0,125.6-7.2,180-41.6V253.2z M346.4,216.4
		c-72,52.8-198.4,45.6-228.8,43.2v-52c21.6,4,43.2,5.6,64.8,5.6c74.4,0,136.8-19.2,165.6-48L346.4,216.4z M348.8,129.2
		c0,32.8-67.2,68-167.2,68c-18.4,0-37.6-1.6-56-4l61.6-58.4c3.2-3.2,4-8,0.8-11.2c-1.6-1.6-4-3.2-6.4-3.2L18.4,114
		c16-27.2,77.6-53.6,163.2-53.6C281.6,61.2,348.8,96.4,348.8,129.2L348.8,129.2z"/>
	<path style="fill:#873C1B;" d="M132.8,79.6c-7.2,0-12.8,5.6-12.8,12.8s5.6,12.8,12.8,12.8s12.8-5.6,12.8-12.8S140,79.6,132.8,79.6z
		"/>
	<path style="fill:#873C1B;" d="M247.2,86.8c-7.2,0-12.8,5.6-12.8,12.8s5.6,12.8,12.8,12.8s12.8-5.6,12.8-12.8
		S254.4,86.8,247.2,86.8z"/>
	<path style="fill:#873C1B;" d="M216,150.8c-7.2,0-12.8,5.6-12.8,12.8c0,7.2,5.6,12.8,12.8,12.8s12.8-5.6,12.8-12.8
		C228.8,156.4,223.2,150.8,216,150.8z"/>
</g>
<g>
</g>
<g>
</g>
<g>
</g>
<g>
</g>
<g>
</g>
<g>
</g>
<g>
</g>
<g>
</g>
<g>
</g>
<g>
</g>
<g>
</g>
<g>
</g>
<g>
</g>
<g>
</g>
<g>
</g>
</svg>
